{
    "asset" : {
        "generator" : "Khronos glTF Blender I/O v1.1.46",
        "version" : "2.0"
    },
    "scene" : 0,
    "scenes" : [
        {
            "name" : "Scene",
            "nodes" : [
                0,
                1,
                2
            ]
        }
    ],
    "nodes" : [
        {
            "mesh" : 0,
            "name" : "Wheel",
            "translation" : [
                -0.00036183977499604225,
                1.0024528503417969,
                0
            ]
        },
        {
            "mesh" : 1,
            "name" : "Shadow",
            "scale" : [
                1.8542265892028809,
                5.898722171783447,
                3.0053224563598633
            ]
        },
        {
            "mesh" : 2,
            "name" : "Robot"
        }
    ],
    "animations" : [
        {
            "channels" : [
                {
                    "sampler" : 0,
                    "target" : {
                        "node" : 1,
                        "path" : "translation"
                    }
                },
                {
                    "sampler" : 1,
                    "target" : {
                        "node" : 1,
                        "path" : "rotation"
                    }
                },
                {
                    "sampler" : 2,
                    "target" : {
                        "node" : 1,
                        "path" : "scale"
                    }
                }
            ],
            "name" : "ShadowAction",
            "samplers" : [
                {
                    "input" : 14,
                    "interpolation" : "STEP",
                    "output" : 15
                },
                {
                    "input" : 14,
                    "interpolation" : "STEP",
                    "output" : 16
                },
                {
                    "input" : 14,
                    "interpolation" : "STEP",
                    "output" : 17
                }
            ]
        }
    ],
    "materials" : [
        {
            "doubleSided" : true,
            "emissiveFactor" : [
                0,
                0,
                0
            ],
            "name" : "Material.001",
            "pbrMetallicRoughness" : {
                "baseColorFactor" : [
                    0.005604501813650131,
                    0.005604501813650131,
                    0.005604501813650131,
                    1
                ],
                "metallicFactor" : 0,
                "roughnessFactor" : 0.5
            }
        },
        {
            "doubleSided" : true,
            "emissiveFactor" : [
                0,
                0,
                0
            ],
            "name" : "Material.002",
            "pbrMetallicRoughness" : {
                "baseColorFactor" : [
                    0.8000000715255737,
                    0.3888832926750183,
                    0,
                    1
                ],
                "metallicFactor" : 0,
                "roughnessFactor" : 0.5
            }
        },
        {
            "doubleSided" : true,
            "emissiveFactor" : [
                0,
                0,
                0
            ],
            "name" : "Material",
            "pbrMetallicRoughness" : {
                "baseColorFactor" : [
                    0.008569823578000069,
                    0.24754635989665985,
                    0.8000000715255737,
                    1
                ],
                "metallicFactor" : 0,
                "roughnessFactor" : 0.5
            }
        }
    ],
    "meshes" : [
        {
            "name" : "Geo_Roue",
            "primitives" : [
                {
                    "attributes" : {
                        "POSITION" : 0,
                        "NORMAL" : 1,
                        "TEXCOORD_0" : 2,
                        "COLOR_0" : 3
                    },
                    "indices" : 4,
                    "material" : 0
                }
            ]
        },
        {
            "name" : "Shadow",
            "primitives" : [
                {
                    "attributes" : {
                        "POSITION" : 5,
                        "NORMAL" : 6,
                        "TEXCOORD_0" : 7
                    },
                    "indices" : 8,
                    "material" : 1
                }
            ]
        },
        {
            "name" : "Geo_Robot",
            "primitives" : [
                {
                    "attributes" : {
                        "POSITION" : 9,
                        "NORMAL" : 10,
                        "TEXCOORD_0" : 11,
                        "COLOR_0" : 12
                    },
                    "indices" : 13,
                    "material" : 2
                }
            ]
        }
    ],
    "accessors" : [
        {
            "bufferView" : 0,
            "componentType" : 5126,
            "count" : 438,
            "max" : [
                0.3062245845794678,
                1,
                1.0004550218582153
            ],
            "min" : [
                -0.3062245845794678,
                -1,
                -1.0004550218582153
            ],
            "type" : "VEC3"
        },
        {
            "bufferView" : 1,
            "componentType" : 5126,
            "count" : 438,
            "type" : "VEC3"
        },
        {
            "bufferView" : 2,
            "componentType" : 5126,
            "count" : 438,
            "type" : "VEC2"
        },
        {
            "bufferView" : 3,
            "componentType" : 5126,
            "count" : 438,
            "type" : "VEC4"
        },
        {
            "bufferView" : 4,
            "componentType" : 5123,
            "count" : 2100,
            "type" : "SCALAR"
        },
        {
            "bufferView" : 5,
            "componentType" : 5126,
            "count" : 4,
            "max" : [
                1,
                0,
                1
            ],
            "min" : [
                -1,
                0,
                -1
            ],
            "type" : "VEC3"
        },
        {
            "bufferView" : 6,
            "componentType" : 5126,
            "count" : 4,
            "type" : "VEC3"
        },
        {
            "bufferView" : 7,
            "componentType" : 5126,
            "count" : 4,
            "type" : "VEC2"
        },
        {
            "bufferView" : 8,
            "componentType" : 5123,
            "count" : 6,
            "type" : "SCALAR"
        },
        {
            "bufferView" : 9,
            "componentType" : 5126,
            "count" : 1842,
            "max" : [
                1.8019077777862549,
                2.728635311126709,
                1.9026458263397217
            ],
            "min" : [
                -1.8021736145019531,
                0.38776132464408875,
                -1.7956680059432983
            ],
            "type" : "VEC3"
        },
        {
            "bufferView" : 10,
            "componentType" : 5126,
            "count" : 1842,
            "type" : "VEC3"
        },
        {
            "bufferView" : 11,
            "componentType" : 5126,
            "count" : 1842,
            "type" : "VEC2"
        },
        {
            "bufferView" : 12,
            "componentType" : 5126,
            "count" : 1842,
            "type" : "VEC4"
        },
        {
            "bufferView" : 13,
            "componentType" : 5123,
            "count" : 8136,
            "type" : "SCALAR"
        },
        {
            "bufferView" : 14,
            "componentType" : 5126,
            "count" : 1,
            "max" : [
                2.4
            ],
            "min" : [
                2.4
            ],
            "type" : "SCALAR"
        },
        {
            "bufferView" : 15,
            "componentType" : 5126,
            "count" : 1,
            "type" : "VEC3"
        },
        {
            "bufferView" : 16,
            "componentType" : 5126,
            "count" : 1,
            "type" : "VEC4"
        },
        {
            "bufferView" : 17,
            "componentType" : 5126,
            "count" : 1,
            "type" : "VEC3"
        }
    ],
    "bufferViews" : [
        {
            "buffer" : 0,
            "byteLength" : 5256,
            "byteOffset" : 0
        },
        {
            "buffer" : 0,
            "byteLength" : 5256,
            "byteOffset" : 5256
        },
        {
            "buffer" : 0,
            "byteLength" : 3504,
            "byteOffset" : 10512
        },
        {
            "buffer" : 0,
            "byteLength" : 7008,
            "byteOffset" : 14016
        },
        {
            "buffer" : 0,
            "byteLength" : 4200,
            "byteOffset" : 21024
        },
        {
            "buffer" : 0,
            "byteLength" : 48,
            "byteOffset" : 25224
        },
        {
            "buffer" : 0,
            "byteLength" : 48,
            "byteOffset" : 25272
        },
        {
            "buffer" : 0,
            "byteLength" : 32,
            "byteOffset" : 25320
        },
        {
            "buffer" : 0,
            "byteLength" : 12,
            "byteOffset" : 25352
        },
        {
            "buffer" : 0,
            "byteLength" : 22104,
            "byteOffset" : 25364
        },
        {
            "buffer" : 0,
            "byteLength" : 22104,
            "byteOffset" : 47468
        },
        {
            "buffer" : 0,
            "byteLength" : 14736,
            "byteOffset" : 69572
        },
        {
            "buffer" : 0,
            "byteLength" : 29472,
            "byteOffset" : 84308
        },
        {
            "buffer" : 0,
            "byteLength" : 16272,
            "byteOffset" : 113780
        },
        {
            "buffer" : 0,
            "byteLength" : 4,
            "byteOffset" : 130052
        },
        {
            "buffer" : 0,
            "byteLength" : 12,
            "byteOffset" : 130056
        },
        {
            "buffer" : 0,
            "byteLength" : 16,
            "byteOffset" : 130068
        },
        {
            "buffer" : 0,
            "byteLength" : 12,
            "byteOffset" : 130084
        }
    ],
    "buffers" : [
        {
            "byteLength" : 130096,
            "uri" : "Robot_Gltf_Basic_Export.bin"
        }
    ]
}
